<svg height="472pt" viewBox="-3 0 471 472" width="472pt" xmlns="http://www.w3.org/2000/svg">
  <path d="m224.5 408.351562s-40-32.351562-208-48.351562v80h160c9-18.542969 27.414062-30.683594 48-31.648438zm0 0" fill="#dce9ef"/>
  <path d="m240.5 408.351562s40-32.351562 208-48.351562v80h-160c-9-18.542969-27.414062-30.683594-48-31.648438zm0 0" fill="#dce9ef"/>
  <path d="m16.5 400h104v16h-104zm0 0" fill="#58b1cc"/>
  <path d="m344.5 400h104v16h-104zm0 0" fill="#58b1cc"/>
  <path d="m312.5 400h16v16h-16zm0 0" fill="#58b1cc"/>
  <g>
    <path d="m224.5 304s104-64 24-136-93.503906-120-80-160c0 0-100.886719 100.398438-8 184 80 72 64 112 64 112zm0 0" fill="#dcd0f7"/>
    <path d="m288.5 160s-60.878906-36.976562-16-72 47.574219-60.542969 40-80c0 0 68.113281 55.328125 16 96-44.878906 35.023438-40 56-40 56zm0 0" fill="#dcd0f7"/>
  </g>
  <g>
    <path d="m424.5 208c-13.253906 0-24-10.746094-24-24 0-4.417969-3.582031-8-8-8s-8 3.582031-8 8c0 13.253906-10.746094 24-24 24-4.417969 0-8 3.582031-8 8s3.582031 8 8 8c13.253906 0 24 10.746094 24 24 0 4.417969 3.582031 8 8 8s8-3.582031 8-8c0-13.253906 10.746094-24 24-24 4.417969 0 8-3.582031 8-8s-3.582031-8-8-8zm-32 16.246094c-2.332031-3.136719-5.109375-5.914063-8.246094-8.246094 3.136719-2.332031 5.914063-5.109375 8.246094-8.246094 2.332031 3.136719 5.109375 5.914063 8.246094 8.246094-3.136719 2.332031-5.914063 5.109375-8.246094 8.246094zm0 0" fill="#ffd782"/>
    <path d="m160.5 288c-13.253906 0-24-10.746094-24-24 0-4.417969-3.582031-8-8-8s-8 3.582031-8 8c0 13.253906-10.746094 24-24 24-4.417969 0-8 3.582031-8 8s3.582031 8 8 8c13.253906 0 24 10.746094 24 24 0 4.417969 3.582031 8 8 8s8-3.582031 8-8c0-13.253906 10.746094-24 24-24 4.417969 0 8-3.582031 8-8s-3.582031-8-8-8zm-32 16.246094c-2.332031-3.136719-5.109375-5.914063-8.246094-8.246094 3.136719-2.332031 5.914063-5.109375 8.246094-8.246094 2.332031 3.136719 5.109375 5.914063 8.246094 8.246094-3.136719 2.332031-5.914063 5.109375-8.246094 8.246094zm0 0" fill="#ffd782"/>
    <path d="m264.5 32c-13.253906 0-24-10.746094-24-24 0-4.417969-3.582031-8-8-8s-8 3.582031-8 8c0 13.253906-10.746094 24-24 24-4.417969 0-8 3.582031-8 8s3.582031 8 8 8c13.253906 0 24 10.746094 24 24 0 4.417969 3.582031 8 8 8s8-3.582031 8-8c0-13.253906 10.746094-24 24-24 4.417969 0 8-3.582031 8-8s-3.582031-8-8-8zm-32 16.246094c-2.332031-3.136719-5.109375-5.914063-8.246094-8.246094 3.136719-2.332031 5.914063-5.109375 8.246094-8.246094 2.332031 3.136719 5.109375 5.914063 8.246094 8.246094-3.136719 2.332031-5.914063 5.109375-8.246094 8.246094zm0 0" fill="#ffd782"/>
  </g>
  <g fill="#d9176c">
    <path d="m232.5 216h16v16h-16zm0 0"/>
    <path d="m208.5 192h16v16h-16zm0 0"/>
    <path d="m320.5 152h16v16h-16zm0 0"/>
    <path d="m320.5 256h16v16h-16zm0 0"/>
    <path d="m112.5 216h16v16h-16zm0 0"/>
    <path d="m192.5 336h16v16h-16zm0 0"/>
    <path d="m40.5 296h16v16h-16zm0 0"/>
  </g>
  <g>
    <path d="m304.5 320c0 8.835938-7.164062 16-16 16s-16-7.164062-16-16 7.164062-16 16-16 16 7.164062 16 16zm0 0" fill="#87cee9"/>
    <path d="m88.5 184c0 8.835938-7.164062 16-16 16s-16-7.164062-16-16 7.164062-16 16-16 16 7.164062 16 16zm0 0" fill="#87cee9"/>
    <path d="m416.5 104c0 8.835938-7.164062 16-16 16s-16-7.164062-16-16 7.164062-16 16-16 16 7.164062 16 16zm0 0" fill="#87cee9"/>
  </g>
  <path d="m264.5 472c0-17.671875-14.328125-32-32-32s-32 14.328125-32 32h-200v-32h176c8-16 24-32 56-32s48 16 56 32h176v32zm0 0" fill="#8d28ad"/>
  <path d="m.5 440h64v32h-64zm0 0" fill="#5c067c"/><path d="m400.5 440h64v32h-64zm0 0" fill="#5c067c"/>
</svg>